<svg width="53" height="53" viewBox="0 0 53 53" fill="none" xmlns="http://www.w3.org/2000/svg">
<g clip-path="url(#clip0_1_575)">
<circle cx="26.5" cy="26.5" r="26.5" fill="#D2EFFF"/>
<ellipse rx="5.44681" ry="5.64413" transform="matrix(-1 0 0 1 26.2945 12.6441)" fill="#0500EE"/>
<rect width="14.9787" height="25.3986" rx="6" transform="matrix(-1 0 0 1 33.7838 19.6995)" fill="#0500EE"/>
<path d="M17.4468 24.7234C17.4468 23.2193 16.2275 22 14.7234 22V22C13.2193 22 12 23.2193 12 24.7234V36.209C12 37.7131 13.2193 38.9324 14.7234 38.9324V38.9324C16.2275 38.9324 17.4468 37.7131 17.4468 36.209V24.7234Z" fill="#0500EE"/>
<path d="M35 24.9075C35 23.4034 36.2193 22.1841 37.7234 22.1841V22.1841C39.2275 22.1841 40.4468 23.4034 40.4468 24.9075V36.3931C40.4468 37.8972 39.2275 39.1165 37.7234 39.1165V39.1165C36.2193 39.1165 35 37.8972 35 36.3931V24.9075Z" fill="#0500EE"/>
</g>
<defs>
<clipPath id="clip0_1_575">
<rect width="53" height="53" fill="white"/>
</clipPath>
</defs>
</svg>
